<?xml version="1.0" encoding="utf-8"?>
<!-- Generator: Adobe Illustrator 22.0.1, SVG Export Plug-In . SVG Version: 6.00 Build 0)  -->
<svg version="1.1" id="Слой_1" xmlns="http://www.w3.org/2000/svg" xmlns:xlink="http://www.w3.org/1999/xlink" x="0px" y="0px"
	 viewBox="0 0 33.3 31.8" style="enable-background:new 0 0 33.3 31.8;" xml:space="preserve">
<style type="text/css">
	.st0{fill:#FF0000;}
</style>
<g id="_4_Список">
	<path id="Rounded_Rectangle_3" class="st0" d="M3,0h27.3c1.7,0,3,1.3,3,3v3.6c0,1.7-1.3,3-3,3H3c-1.7,0-3-1.3-3-3V3
		C0,1.3,1.3,0,3,0z"/>
	<path id="Rounded_Rectangle_3_copy" class="st0" d="M3,11.1h27.3c1.7,0,3,1.3,3,3v3.6c0,1.7-1.3,3-3,3H3c-1.7,0-3-1.3-3-3v-3.6
		C0,12.4,1.3,11.1,3,11.1z"/>
	<path id="Rounded_Rectangle_3_copy_4" class="st0" d="M3,22.2h27.3c1.7,0,3,1.3,3,3v3.6c0,1.7-1.3,3-3,3H3c-1.7,0-3-1.3-3-3v-3.6
		C0,23.5,1.3,22.2,3,22.2z"/>
</g>
</svg>
