<?xml version="1.0" encoding="utf-8"?>
<!-- Generator: Adobe Illustrator 13.0.2, SVG Export Plug-In . SVG Version: 6.00 Build 14948)  -->
<!DOCTYPE svg PUBLIC "-//W3C//DTD SVG 1.1//EN" "http://www.w3.org/Graphics/SVG/1.1/DTD/svg11.dtd">
<svg version="1.1" id="Conflux" xmlns="http://www.w3.org/2000/svg" xmlns:xlink="http://www.w3.org/1999/xlink" x="0px" y="0px"
	 width="898.186px" height="856.414px" viewBox="0 0 898.186 856.414" enable-background="new 0 0 898.186 856.414"
	 xml:space="preserve">
<path d="M242.295,663.103c-40.56-16.239-79.044-38.863-112.39-67.434c-30.829-26.413-57.266-57.909-78.673-92.16
	c124.379-82.42,176.078-182.822,155.098-301.206c8.377-0.09,16.845-1.563,24.726-4.496c4.729-1.76,9.246-4.045,13.487-6.743
	C372.668,298.958,361.428,566.447,242.295,663.103z"/>
<path d="M590.705,166.338c-25.361-14.823-49.035-32.838-69.682-53.947C489.759,80.426,465.435,41.368,449.093,0
	c-16.342,41.368-40.666,80.426-71.93,112.39c-20.647,21.109-44.321,39.125-69.682,53.947c132.621,150.592,114.638,404.605,0,516.995
	c33.04,20.279,63.233,46.048,87.665,76.425c23.253,28.912,41.288,61.999,53.947,96.656c12.66-34.657,30.694-67.744,53.947-96.656
	c24.432-30.377,54.625-56.146,87.665-76.425C476.067,570.943,458.084,316.93,590.705,166.338z"/>
<path d="M691.856,202.302c-8.376-0.09-16.845-1.563-24.726-4.496c-4.729-1.76-9.246-4.045-13.487-6.743
	c-128.125,107.895-116.886,375.384,2.248,472.039c40.559-16.239,79.044-38.863,112.39-67.434
	c30.829-26.413,57.266-57.909,78.673-92.16C722.576,421.089,670.877,320.687,691.856,202.302z"/>
<path d="M837.964,157.346c-10.624,13.255-23.541,24.948-38.213,33.717c-15.149,9.055-32.168,14.993-49.452,17.982
	c-10.49,89.912,29.222,165.588,119.134,227.028c11.857-24.8,20.137-51.186,24.726-78.673c7.667-45.922,5.03-94.917-13.487-137.116
	C870.449,196.989,855.387,175.764,837.964,157.346z"/>
<path d="M147.887,209.046c10.49,89.912-29.221,165.588-119.134,227.028c-11.858-24.8-20.137-51.186-24.726-78.673
	c-7.666-45.922-5.03-94.917,13.487-137.116c10.222-23.296,25.284-44.521,42.708-62.939c10.623,13.255,23.541,24.948,38.213,33.717
	C113.584,200.118,130.604,206.056,147.887,209.046z"/>
</svg>
