<?xml version="1.0" encoding="utf-8"?>
<!-- Generator: Adobe Illustrator 22.1.0, SVG Export Plug-In . SVG Version: 6.00 Build 0)  -->
<svg version="1.1" id="Слой_1" xmlns="http://www.w3.org/2000/svg" xmlns:xlink="http://www.w3.org/1999/xlink" x="0px" y="0px"
	 viewBox="0 0 66.7 37.5" style="enable-background:new 0 0 66.7 37.5;" xml:space="preserve">
<g>
	<path d="M65.5,1.2C64.7,0.4,63.7,0,62.6,0H4.2C3,0,2.1,0.4,1.2,1.2C0.4,2.1,0,3,0,4.2c0,1.1,0.4,2.1,1.2,2.9l29.2,29.2
		c0.8,0.8,1.8,1.2,2.9,1.2c1.1,0,2.1-0.4,2.9-1.2L65.5,7.1c0.8-0.8,1.2-1.8,1.2-2.9C66.7,3,66.3,2.1,65.5,1.2L65.5,1.2z M65.5,1.2"
		/>
</g>
</svg>
