<?xml version="1.0" encoding="utf-8"?>
<!-- Generator: Adobe Illustrator 22.0.1, SVG Export Plug-In . SVG Version: 6.00 Build 0)  -->
<svg version="1.1" id="Слой_1" xmlns="http://www.w3.org/2000/svg" xmlns:xlink="http://www.w3.org/1999/xlink" x="0px" y="0px"
	 viewBox="0 0 33.3 31.8" style="enable-background:new 0 0 33.3 31.8;" xml:space="preserve">
<style type="text/css">
	.st0{fill:#FF0000;}
</style>
<path id="Rounded_Rectangle_3" class="st0" d="M5,0h5.6c2.8,0,5,2.2,5,5v4.8c0,2.8-2.2,5-5,5H5c-2.8,0-5-2.2-5-5V5C0,2.2,2.2,0,5,0z
	"/>
<path id="Rounded_Rectangle_3_copy" class="st0" d="M5,17h5.6c2.8,0,5,2.2,5,5v4.8c0,2.8-2.2,5-5,5H5c-2.8,0-5-2.2-5-5V22
	C0,19.3,2.2,17,5,17z"/>
<path id="Rounded_Rectangle_3_copy_2" class="st0" d="M22.8,0h5.5c2.8,0,5,2.2,5,5v4.8c0,2.8-2.2,5-5,5h-5.5c-2.8,0-5-2.2-5-5V5
	C17.8,2.2,20,0,22.8,0z"/>
<path id="Rounded_Rectangle_3_copy_2-2" class="st0" d="M22.8,17h5.5c2.8,0,5,2.2,5,5v4.8c0,2.8-2.2,5-5,5h-5.5c-2.8,0-5-2.2-5-5V22
	C17.8,19.3,20,17,22.8,17z"/>
</svg>
