<?xml version="1.0" encoding="utf-8"?>
<!-- Generator: Adobe Illustrator 22.0.1, SVG Export Plug-In . SVG Version: 6.00 Build 0)  -->
<svg version="1.1" id="Слой_1" xmlns="http://www.w3.org/2000/svg" xmlns:xlink="http://www.w3.org/1999/xlink" x="0px" y="0px"
	 viewBox="0 0 33.3 31.8" style="enable-background:new 0 0 33.3 31.8;" xml:space="preserve">
<style type="text/css">
	.st0{fill:#FF0000;}
</style>
<g id="_3_Мелкая_сетка">
	<path id="Rounded_Rectangle_3" class="st0" d="M3,0h4.1c1.7,0,3,1.3,3,3v3.6c0,1.7-1.3,3-3,3H3c-1.7,0-3-1.3-3-3V3C0,1.3,1.3,0,3,0
		z"/>
	<path id="Rounded_Rectangle_3_copy" class="st0" d="M3,11.1h4.1c1.7,0,3,1.3,3,3v3.6c0,1.7-1.3,3-3,3H3c-1.7,0-3-1.3-3-3v-3.6
		C0,12.4,1.3,11.1,3,11.1z"/>
	<path id="Rounded_Rectangle_3_copy_2" class="st0" d="M14.6,0h4.1c1.7,0,3,1.3,3,3v3.6c0,1.7-1.3,3-3,3h-4.1c-1.7,0-3-1.3-3-3V3
		C11.6,1.3,12.9,0,14.6,0z"/>
	<path id="Rounded_Rectangle_3_copy_2-2" class="st0" d="M14.6,11.1h4.1c1.7,0,3,1.3,3,3v3.6c0,1.7-1.3,3-3,3h-4.1c-1.7,0-3-1.3-3-3
		v-3.6C11.6,12.4,12.9,11.1,14.6,11.1z"/>
	<path id="Rounded_Rectangle_3_copy_3" class="st0" d="M26.2,0h4.1c1.7,0,3,1.3,3,3v3.6c0,1.7-1.3,3-3,3h-4.1c-1.7,0-3-1.3-3-3V3
		C23.2,1.3,24.5,0,26.2,0z"/>
	<path id="Rounded_Rectangle_3_copy_3-2" class="st0" d="M26.2,11.1h4.1c1.7,0,3,1.3,3,3v3.6c0,1.7-1.3,3-3,3h-4.1c-1.7,0-3-1.3-3-3
		v-3.6C23.2,12.4,24.5,11.1,26.2,11.1z"/>
	<path id="Rounded_Rectangle_3_copy_4" class="st0" d="M3,22.2h4.1c1.7,0,3,1.3,3,3v3.6c0,1.7-1.3,3-3,3H3c-1.7,0-3-1.3-3-3v-3.6
		C0,23.5,1.3,22.2,3,22.2z"/>
	<path id="Rounded_Rectangle_3_copy_4-2" class="st0" d="M14.6,22.2h4.1c1.7,0,3,1.3,3,3v3.6c0,1.7-1.3,3-3,3h-4.1c-1.7,0-3-1.3-3-3
		v-3.6C11.6,23.5,12.9,22.2,14.6,22.2z"/>
	<path id="Rounded_Rectangle_3_copy_4-3" class="st0" d="M26.2,22.2h4.1c1.7,0,3,1.3,3,3v3.6c0,1.7-1.3,3-3,3h-4.1c-1.7,0-3-1.3-3-3
		v-3.6C23.2,23.5,24.5,22.2,26.2,22.2z"/>
</g>
</svg>
