<?xml version="1.0" encoding="utf-8"?>
<!-- Generator: Adobe Illustrator 22.1.0, SVG Export Plug-In . SVG Version: 6.00 Build 0)  -->
<svg version="1.1" id="Слой_1" xmlns="http://www.w3.org/2000/svg" xmlns:xlink="http://www.w3.org/1999/xlink" x="0px" y="0px"
	 viewBox="0 0 384 324" style="enable-background:new 0 0 384 324;" xml:space="preserve">
<path d="M378.3,108.8c-5.1-6.4-12.7-10-20.9-10h-74L243.4,7c-2.5-5.7-9.1-8.3-14.8-5.8c-5.7,2.5-8.3,9.1-5.8,14.8l36.2,82.8H125.1
	L161.2,16c2.5-5.7-0.1-12.3-5.8-14.8c-5.7-2.5-12.3,0.1-14.8,5.8l-40.1,91.8h-74c-8.2,0-15.8,3.6-20.9,10c-5,6.2-6.8,14.3-5,22
	l39.5,172.5c2.8,12,13.4,20.5,25.9,20.5h251.9c12.5,0,23.2-8.4,25.9-20.5l39.5-172.5C385.1,123.1,383.3,115,378.3,108.8L378.3,108.8
	z M317.9,301.3H66.1c-1.9,0-3.6-1.3-4-3L22.6,125.8c-0.3-1.4,0.2-2.4,0.7-3c0.5-0.6,1.5-1.5,3.3-1.5h64.1l-2.9,6.7
	c-2.5,5.7,0.1,12.3,5.8,14.8c1.5,0.6,3,0.9,4.5,0.9c4.3,0,8.5-2.5,10.3-6.8l6.9-15.8h153.5l6.9,15.8c1.8,4.2,6,6.8,10.3,6.8
	c1.5,0,3-0.3,4.5-0.9c5.7-2.5,8.3-9.1,5.8-14.8l-2.9-6.7h64.1c1.8,0,2.8,1,3.3,1.5c0.5,0.6,1,1.6,0.7,3l-39.5,172.5
	C321.5,300,319.8,301.3,317.9,301.3L317.9,301.3z M317.9,301.3"/>
<path d="M124.5,170c-6.2,0-11.3,5-11.3,11.3v82.5c0,6.2,5,11.3,11.3,11.3c6.2,0,11.3-5,11.3-11.3v-82.5
	C135.8,175.1,130.7,170,124.5,170L124.5,170z M124.5,170"/>
<path d="M192,170c-6.2,0-11.3,5-11.3,11.3v82.5c0,6.2,5,11.3,11.3,11.3c6.2,0,11.2-5,11.2-11.3v-82.5C203.2,175.1,198.2,170,192,170
	L192,170z M192,170"/>
<path d="M259.5,170c-6.2,0-11.3,5-11.3,11.3v82.5c0,6.2,5,11.3,11.3,11.3c6.2,0,11.3-5,11.3-11.3v-82.5
	C270.8,175.1,265.7,170,259.5,170L259.5,170z M259.5,170"/>
</svg>
