<svg xmlns="http://www.w3.org/2000/svg" style="display: none;">
    <symbol id="icon-search" viewBox="0 0 24.19 24.19">
        <path d="M16.16,2.77a9.47,9.47,0,1,0-1.3,14.46,2.1,2.1,0,0,0,.54,1l5.37,5.37a2,2,0,1,0,2.83-2.82L18.23,15.4a2.05,2.05,0,0,0-1-.54A9.49,9.49,0,0,0,16.16,2.77Zm-1.7,11.69a7.07,7.07,0,1,1,0-10,7.09,7.09,0,0,1,0,10Zm0,0"/>
    </symbol>
    <symbol id="icon-conflux" viewBox="0 0 898.186 856.414">
        <path d="M242.295,663.103c-40.56-16.239-79.044-38.863-112.39-67.434c-30.829-26.413-57.266-57.909-78.673-92.16
	c124.379-82.42,176.078-182.822,155.098-301.206c8.377-0.09,16.845-1.563,24.726-4.496c4.729-1.76,9.246-4.045,13.487-6.743
	C372.668,298.958,361.428,566.447,242.295,663.103z"/>
        <path d="M590.705,166.338c-25.361-14.823-49.035-32.838-69.682-53.947C489.759,80.426,465.435,41.368,449.093,0
	c-16.342,41.368-40.666,80.426-71.93,112.39c-20.647,21.109-44.321,39.125-69.682,53.947c132.621,150.592,114.638,404.605,0,516.995
	c33.04,20.279,63.233,46.048,87.665,76.425c23.253,28.912,41.288,61.999,53.947,96.656c12.66-34.657,30.694-67.744,53.947-96.656
	c24.432-30.377,54.625-56.146,87.665-76.425C476.067,570.943,458.084,316.93,590.705,166.338z"/>
        <path d="M691.856,202.302c-8.376-0.09-16.845-1.563-24.726-4.496c-4.729-1.76-9.246-4.045-13.487-6.743
	c-128.125,107.895-116.886,375.384,2.248,472.039c40.559-16.239,79.044-38.863,112.39-67.434
	c30.829-26.413,57.266-57.909,78.673-92.16C722.576,421.089,670.877,320.687,691.856,202.302z"/>
        <path d="M837.964,157.346c-10.624,13.255-23.541,24.948-38.213,33.717c-15.149,9.055-32.168,14.993-49.452,17.982
	c-10.49,89.912,29.222,165.588,119.134,227.028c11.857-24.8,20.137-51.186,24.726-78.673c7.667-45.922,5.03-94.917-13.487-137.116
	C870.449,196.989,855.387,175.764,837.964,157.346z"/>
        <path d="M147.887,209.046c10.49,89.912-29.221,165.588-119.134,227.028c-11.858-24.8-20.137-51.186-24.726-78.673
	c-7.666-45.922-5.03-94.917,13.487-137.116c10.222-23.296,25.284-44.521,42.708-62.939c10.623,13.255,23.541,24.948,38.213,33.717
	C113.584,200.118,130.604,206.056,147.887,209.046z"/>
    </symbol>
    <symbol id="icon-basket" viewBox="0 0 384 324">
        <path d="M378.3,108.8c-5.1-6.4-12.7-10-20.9-10h-74L243.4,7c-2.5-5.7-9.1-8.3-14.8-5.8c-5.7,2.5-8.3,9.1-5.8,14.8l36.2,82.8H125.1
	L161.2,16c2.5-5.7-0.1-12.3-5.8-14.8c-5.7-2.5-12.3,0.1-14.8,5.8l-40.1,91.8h-74c-8.2,0-15.8,3.6-20.9,10c-5,6.2-6.8,14.3-5,22
	l39.5,172.5c2.8,12,13.4,20.5,25.9,20.5h251.9c12.5,0,23.2-8.4,25.9-20.5l39.5-172.5C385.1,123.1,383.3,115,378.3,108.8L378.3,108.8
	z M317.9,301.3H66.1c-1.9,0-3.6-1.3-4-3L22.6,125.8c-0.3-1.4,0.2-2.4,0.7-3c0.5-0.6,1.5-1.5,3.3-1.5h64.1l-2.9,6.7
	c-2.5,5.7,0.1,12.3,5.8,14.8c1.5,0.6,3,0.9,4.5,0.9c4.3,0,8.5-2.5,10.3-6.8l6.9-15.8h153.5l6.9,15.8c1.8,4.2,6,6.8,10.3,6.8
	c1.5,0,3-0.3,4.5-0.9c5.7-2.5,8.3-9.1,5.8-14.8l-2.9-6.7h64.1c1.8,0,2.8,1,3.3,1.5c0.5,0.6,1,1.6,0.7,3l-39.5,172.5
	C321.5,300,319.8,301.3,317.9,301.3L317.9,301.3z M317.9,301.3"/>
        <path d="M124.5,170c-6.2,0-11.3,5-11.3,11.3v82.5c0,6.2,5,11.3,11.3,11.3c6.2,0,11.3-5,11.3-11.3v-82.5
	C135.8,175.1,130.7,170,124.5,170L124.5,170z M124.5,170"/>
        <path d="M192,170c-6.2,0-11.3,5-11.3,11.3v82.5c0,6.2,5,11.3,11.3,11.3c6.2,0,11.2-5,11.2-11.3v-82.5C203.2,175.1,198.2,170,192,170
	L192,170z M192,170"/>
        <path d="M259.5,170c-6.2,0-11.3,5-11.3,11.3v82.5c0,6.2,5,11.3,11.3,11.3c6.2,0,11.3-5,11.3-11.3v-82.5
	C270.8,175.1,265.7,170,259.5,170L259.5,170z M259.5,170"/>
    </symbol>
    <symbol id="icon-mana" viewBox="0 0 100 100">
        <circle fill='#CAC5C0' cx='50' cy='50.998' r='50'/>
        <path d='M64.27 68.359v6.723c0 7.684 2.695 11.525 8.094 11.525h2.33v4.394h-32.658v-4.394h2.607c5.303 0 7.961-3.798 7.961-11.392v-6.856h-32.795v-6.861l34.578-50.497h9.883v51.592h.82c3.383 0 5.852-2.608 7.408-7.816h4.115l-1.92 13.583-10.423-.001zm-11.666-5.766v-41.458l-27.893 41.458h27.893z'
              fill='#0D0F0F'/>
    </symbol>
</svg>